<svg width="152" height="152" fill="none" xmlns="http://www.w3.org/2000/svg"><path fill="#EEE" d="M0 0h152v152H0z"/><path d="M71.21 25.372c5.653 11.654-11.746 19.57-19.728 10.828-3.326-3.725-1.796-10.922 6.272-14.833 4.037-2.003 9.69-3.823 13.456 4.005zm35.585-5.128c6.15 12.687-12.8 21.307-21.486 11.788-3.621-4.06-1.958-11.887 6.835-16.148 4.392-2.182 10.544-4.158 14.651 4.36z" fill="#000"/><path fill-rule="evenodd" clip-rule="evenodd" d="M70.404 128.699c12.87 1.482 26.268-2.559 31.442-10.903 4.375-7.001.795-9.425-4.246-3.773-10.611 12.254-21.622 6.733-26.264-5.652l1.195-.403c22.416-9.02 36.476-33.517 27.59-47.383-12.207-19.116-50.408-2.021-55.186 24.768-4.377 24.769 7.03 41.326 25.469 43.346zm13.798-66.765c3.847 6.191-.794 28.133-14.724 38.094-.397-3.099-.397-6.462-.133-9.961 2.786-24.5 10.746-34.593 14.857-28.133z" fill="#000"/></svg>