<svg width="199" height="57" fill="none" xmlns="http://www.w3.org/2000/svg"><path d="M0 22.23v4.44h4.25v-4.44H0ZM20.15 7.82a7.75 7.75 0 0 0-6.25 3h-.14V0h-3.52v26.67h3.52v-9.15c0-3.66 2.29-6.3 5.65-6.3 3.18 0 5.03 2.38 5.03 5.56v9.9h3.52V16.14c0-5.07-3.15-8.33-7.8-8.33ZM46.06 8.34h-8.32V1.85h-3.52v6.49H30.9v3.4h3.32v10.34c0 2.96 1.67 4.6 4.66 4.6h7.18v-3.45h-6.47c-1.19 0-1.85-.67-1.85-1.82v-9.67h8.32v-3.4ZM71.16 7.85a6.7 6.7 0 0 0-6.14 3.56h-.11a6.22 6.22 0 0 0-5.8-3.56 6.2 6.2 0 0 0-5.4 3.12h-.16V8.34H50.2v18.33h3.51v-9.4c0-3.45 1.81-5.97 4.55-6.04 2.59-.08 4.1 1.77 4.1 4.55v10.9h3.52v-9.71c0-4.11 2.44-5.74 4.55-5.74 2.55 0 4.07 1.77 4.07 4.55v10.9H78V15.4c0-4.44-2.51-7.56-6.84-7.56ZM82.76 21.93c0 3 1.7 4.74 4.85 4.74h3.47v-3.4h-2.96c-1.18 0-1.84-.67-1.84-1.82V0h-3.52v21.93ZM50.02 34h-.15a8.03 8.03 0 0 0-6.56-3.16c-5.44-.07-9.34 3.94-9.34 9.61 0 5.71 3.97 9.73 9.3 9.65a7.84 7.84 0 0 0 6.6-3.35h.15v2.84h3.48V31.36h-3.48V34Zm-6.23 12.71c-3.85 0-6.3-2.8-6.3-6.26a6.05 6.05 0 0 1 6.3-6.26c3.75 0 6.2 2.8 6.2 6.26 0 3.43-2.45 6.26-6.2 6.26ZM76.5 37.99c-.85-4.13-4.52-7.15-9.34-7.15-5.81 0-9.7 4.24-9.7 9.61 0 5.38 3.89 9.65 9.7 9.65 4.82 0 8.49-3.1 9.34-7.25h-3.67a5.74 5.74 0 0 1-5.63 3.9c-3.78 0-6.22-2.84-6.22-6.3s2.44-6.26 6.22-6.26c2.82 0 4.9 1.66 5.63 3.8h3.67ZM95.32 34h-.15a8.03 8.03 0 0 0-6.56-3.16c-5.44-.07-9.33 3.94-9.33 9.61 0 5.71 3.96 9.73 9.3 9.65a7.84 7.84 0 0 0 6.59-3.35h.15v2.84h3.48V31.36h-3.48V34Zm-6.23 12.71c-3.85 0-6.3-2.8-6.3-6.26a6.05 6.05 0 0 1 6.3-6.26c3.75 0 6.2 2.8 6.2 6.26 0 3.43-2.45 6.26-6.2 6.26ZM118.8 34.2h-.15a8 8 0 0 0-6.6-3.36c-5.33-.07-9.3 3.94-9.3 9.65 0 5.67 3.9 9.69 9.34 9.61a8.01 8.01 0 0 0 6.53-3.16h.18v2.65h3.48V23.07h-3.48v11.12Zm-6.22 12.55c-3.86 0-6.3-2.8-6.3-6.26a6.05 6.05 0 0 1 6.3-6.26c3.74 0 6.18 2.83 6.18 6.26 0 3.46-2.44 6.26-6.18 6.26ZM135.54 30.84c-5.63 0-9.48 4.31-9.48 9.65 0 5.2 3.63 9.61 9.56 9.61 4.3 0 7.74-2.32 8.97-6.19h-3.67c-.82 1.74-2.78 2.84-5.15 2.84-3.34 0-5.7-2.2-5.97-5.04h15.16c.48-6.08-3.34-10.87-9.42-10.87Zm-.07 3.35c2.93 0 5.11 1.8 5.67 4.42h-11.26a5.5 5.5 0 0 1 5.59-4.42ZM169.93 30.88a6.72 6.72 0 0 0-6.15 3.53h-.12a6.24 6.24 0 0 0-5.81-3.53 6.22 6.22 0 0 0-5.41 3.1h-.15v-2.62h-3.37v18.23h3.52v-9.36c0-3.42 1.81-5.93 4.56-6 2.59-.07 4.1 1.77 4.1 4.53v10.83h3.53v-9.65c0-4.1 2.44-5.71 4.56-5.71 2.55 0 4.07 1.77 4.07 4.53v10.83h3.52v-11.2c0-4.42-2.52-7.51-6.85-7.51ZM189.38 46.68l-6.3-15.32h-3.89l8.38 19.96-.04.07c-.6 1.51-1.26 2.06-2.9 2.06h-4.33v3.5h4.34c3.19 0 4.89-1.43 6.08-4.53l8.07-21.06h-3.6l-5.8 15.32Z" fill="#000"/></svg>